HIERARCHY
ROOT mixamorig:Hips
{
	OFFSET -0.000008 104.274872 1.554316
	CHANNELS 6 Xposition Yposition Zposition Xrotation Yrotation Zrotation
	JOINT mixamorig:Spine
	{
		OFFSET -0.000005 10.181595 0.131519
		CHANNELS 6 Xposition Yposition Zposition Xrotation Yrotation Zrotation
		JOINT mixamorig:Spine1
		{
			OFFSET -0.000000 9.893959 -1.470707
			CHANNELS 6 Xposition Yposition Zposition Xrotation Yrotation Zrotation
			JOINT mixamorig:Spine2
			{
				OFFSET -0.000000 9.220757 -1.370641
				CHANNELS 6 Xposition Yposition Zposition Xrotation Yrotation Zrotation
				JOINT mixamorig:Neck
				{
					OFFSET 0.000001 16.740417 -2.049036
					CHANNELS 6 Xposition Yposition Zposition Xrotation Yrotation Zrotation
					JOINT mixamorig:Head
					{
						OFFSET 0.000000 9.617874 1.685006
						CHANNELS 6 Xposition Yposition Zposition Xrotation Yrotation Zrotation
						JOINT mixamorig:HeadTop_End
						{
							OFFSET 0.000002 22.037354 7.501101
							CHANNELS 6 Xposition Yposition Zposition Xrotation Yrotation Zrotation
							End Site
							{
								OFFSET 0.000168 2310.654297 -282.823242
							}
						}
					}
				}
				JOINT mixamorig:RightShoulder
				{
					OFFSET -4.569970 11.014908 -2.160885
					CHANNELS 6 Xposition Yposition Zposition Xrotation Yrotation Zrotation
					JOINT mixamorig:RightArm
					{
						OFFSET -10.592851 -0.524811 -2.232101
						CHANNELS 6 Xposition Yposition Zposition Xrotation Yrotation Zrotation
						JOINT mixamorig:RightForeArm
						{
							OFFSET -27.841511 0.000031 -0.000004
							CHANNELS 6 Xposition Yposition Zposition Xrotation Yrotation Zrotation
							JOINT mixamorig:RightHand
							{
								OFFSET -28.328831 -0.000015 0.000015
								CHANNELS 6 Xposition Yposition Zposition Xrotation Yrotation Zrotation
								JOINT mixamorig:RightHandThumb1
								{
									OFFSET -2.464806 -1.573990 2.681852
									CHANNELS 6 Xposition Yposition Zposition Xrotation Yrotation Zrotation
									JOINT mixamorig:RightHandThumb2
									{
										OFFSET -3.215179 -1.872803 1.924282
										CHANNELS 6 Xposition Yposition Zposition Xrotation Yrotation Zrotation
										JOINT mixamorig:RightHandThumb3
										{
											OFFSET -2.654831 -1.527969 1.512609
											CHANNELS 6 Xposition Yposition Zposition Xrotation Yrotation Zrotation
											JOINT mixamorig:RightHandThumb4
											{
												OFFSET -2.018814 -1.152008 1.108052
												CHANNELS 6 Xposition Yposition Zposition Xrotation Yrotation Zrotation
												End Site
												{
													OFFSET -188.809540 -114.533607 132.431396
												}
											}
										}
									}
								}
								JOINT mixamorig:RightHandIndex1
								{
									OFFSET -9.108284 -0.517868 2.259835
									CHANNELS 6 Xposition Yposition Zposition Xrotation Yrotation Zrotation
									JOINT mixamorig:RightHandIndex2
									{
										OFFSET -3.699989 0.000000 0.001215
										CHANNELS 6 Xposition Yposition Zposition Xrotation Yrotation Zrotation
										JOINT mixamorig:RightHandIndex3
										{
											OFFSET -2.850006 0.000031 -0.000522
											CHANNELS 6 Xposition Yposition Zposition Xrotation Yrotation Zrotation
											JOINT mixamorig:RightHandIndex4
											{
												OFFSET -2.772186 -0.000015 -0.000020
												CHANNELS 6 Xposition Yposition Zposition Xrotation Yrotation Zrotation
												End Site
												{
													OFFSET -277.218445 0.000000 -0.050231
												}
											}
										}
									}
								}
								JOINT mixamorig:RightHandMiddle1
								{
									OFFSET -9.532516 -0.000031 -0.000023
									CHANNELS 6 Xposition Yposition Zposition Xrotation Yrotation Zrotation
									JOINT mixamorig:RightHandMiddle2
									{
										OFFSET -3.700005 -0.000015 0.003713
										CHANNELS 6 Xposition Yposition Zposition Xrotation Yrotation Zrotation
										JOINT mixamorig:RightHandMiddle3
										{
											OFFSET -2.949974 0.000015 -0.002054
											CHANNELS 6 Xposition Yposition Zposition Xrotation Yrotation Zrotation
											JOINT mixamorig:RightHandMiddle4
											{
												OFFSET -2.946640 0.000000 -0.000156
												CHANNELS 6 Xposition Yposition Zposition Xrotation Yrotation Zrotation
												End Site
												{
													OFFSET -294.664337 0.000000 -0.113670
												}
											}
										}
									}
								}
								JOINT mixamorig:RightHandRing1
								{
									OFFSET -9.103600 -0.043076 -1.865134
									CHANNELS 6 Xposition Yposition Zposition Xrotation Yrotation Zrotation
									JOINT mixamorig:RightHandRing2
									{
										OFFSET -3.379288 0.000000 -0.001055
										CHANNELS 6 Xposition Yposition Zposition Xrotation Yrotation Zrotation
										JOINT mixamorig:RightHandRing3
										{
											OFFSET -2.889687 -0.000015 0.000379
											CHANNELS 6 Xposition Yposition Zposition Xrotation Yrotation Zrotation
											JOINT mixamorig:RightHandRing4
											{
												OFFSET -2.638809 -0.000015 0.000941
												CHANNELS 6 Xposition Yposition Zposition Xrotation Yrotation Zrotation
												End Site
												{
													OFFSET -263.880371 0.000000 0.516020
												}
											}
										}
									}
								}
								JOINT mixamorig:RightHandPinky1
								{
									OFFSET -8.076683 -0.486710 -3.806280
									CHANNELS 6 Xposition Yposition Zposition Xrotation Yrotation Zrotation
									JOINT mixamorig:RightHandPinky2
									{
										OFFSET -3.600014 -0.000015 -0.003747
										CHANNELS 6 Xposition Yposition Zposition Xrotation Yrotation Zrotation
										JOINT mixamorig:RightHandPinky3
										{
											OFFSET -2.099983 0.000000 -0.005739
											CHANNELS 6 Xposition Yposition Zposition Xrotation Yrotation Zrotation
											JOINT mixamorig:RightHandPinky4
											{
												OFFSET -2.115768 -0.000031 -0.003680
												CHANNELS 6 Xposition Yposition Zposition Xrotation Yrotation Zrotation
												End Site
												{
													OFFSET -211.577087 0.000000 -0.350686
												}
											}
										}
									}
								}
							}
						}
					}
				}
				JOINT mixamorig:LeftShoulder
				{
					OFFSET 4.570447 11.014725 -2.160855
					CHANNELS 6 Xposition Yposition Zposition Xrotation Yrotation Zrotation
					JOINT mixamorig:LeftArm
					{
						OFFSET 10.592371 -0.524597 -2.232119
						CHANNELS 6 Xposition Yposition Zposition Xrotation Yrotation Zrotation
						JOINT mixamorig:LeftForeArm
						{
							OFFSET 27.841532 -0.000031 0.000026
							CHANNELS 6 Xposition Yposition Zposition Xrotation Yrotation Zrotation
							JOINT mixamorig:LeftHand
							{
								OFFSET 28.328846 -0.000061 0.000022
								CHANNELS 6 Xposition Yposition Zposition Xrotation Yrotation Zrotation
								JOINT mixamorig:LeftHandThumb1
								{
									OFFSET 2.466141 -1.576172 2.681732
									CHANNELS 6 Xposition Yposition Zposition Xrotation Yrotation Zrotation
									JOINT mixamorig:LeftHandThumb2
									{
										OFFSET 3.217812 -1.872070 1.916482
										CHANNELS 6 Xposition Yposition Zposition Xrotation Yrotation Zrotation
										JOINT mixamorig:LeftHandThumb3
										{
											OFFSET 2.656029 -1.528778 1.514513
											CHANNELS 6 Xposition Yposition Zposition Xrotation Yrotation Zrotation
											JOINT mixamorig:LeftHandThumb4
											{
												OFFSET 2.020889 -1.154053 1.115139
												CHANNELS 6 Xposition Yposition Zposition Xrotation Yrotation Zrotation
												End Site
												{
													OFFSET 190.885437 -115.081749 130.048782
												}
											}
										}
									}
								}
								JOINT mixamorig:LeftHandIndex1
								{
									OFFSET 9.109314 -0.518021 2.259871
									CHANNELS 6 Xposition Yposition Zposition Xrotation Yrotation Zrotation
									JOINT mixamorig:LeftHandIndex2
									{
										OFFSET 3.699989 0.000000 -0.000322
										CHANNELS 6 Xposition Yposition Zposition Xrotation Yrotation Zrotation
										JOINT mixamorig:LeftHandIndex3
										{
											OFFSET 2.850006 0.000000 0.000352
											CHANNELS 6 Xposition Yposition Zposition Xrotation Yrotation Zrotation
											JOINT mixamorig:LeftHandIndex4
											{
												OFFSET 2.774864 -0.000031 -0.000027
												CHANNELS 6 Xposition Yposition Zposition Xrotation Yrotation Zrotation
												End Site
												{
													OFFSET 277.486267 0.000000 -0.009857
												}
											}
										}
									}
								}
								JOINT mixamorig:LeftHandMiddle1
								{
									OFFSET 9.533394 0.000061 0.000044
									CHANNELS 6 Xposition Yposition Zposition Xrotation Yrotation Zrotation
									JOINT mixamorig:LeftHandMiddle2
									{
										OFFSET 3.699989 -0.000015 -0.000231
										CHANNELS 6 Xposition Yposition Zposition Xrotation Yrotation Zrotation
										JOINT mixamorig:LeftHandMiddle3
										{
											OFFSET 2.949997 -0.000015 -0.000059
											CHANNELS 6 Xposition Yposition Zposition Xrotation Yrotation Zrotation
											JOINT mixamorig:LeftHandMiddle4
											{
												OFFSET 2.952896 0.000031 0.000063
												CHANNELS 6 Xposition Yposition Zposition Xrotation Yrotation Zrotation
												End Site
												{
													OFFSET 295.289337 0.000000 0.022810
												}
											}
										}
									}
								}
								JOINT mixamorig:LeftHandRing1
								{
									OFFSET 9.104523 -0.042999 -1.865074
									CHANNELS 6 Xposition Yposition Zposition Xrotation Yrotation Zrotation
									JOINT mixamorig:LeftHandRing2
									{
										OFFSET 3.150009 -0.000031 0.000043
										CHANNELS 6 Xposition Yposition Zposition Xrotation Yrotation Zrotation
										JOINT mixamorig:LeftHandRing3
										{
											OFFSET 2.949982 -0.000015 0.000040
											CHANNELS 6 Xposition Yposition Zposition Xrotation Yrotation Zrotation
											JOINT mixamorig:LeftHandRing4
											{
												OFFSET 2.644348 0.000000 0.000057
												CHANNELS 6 Xposition Yposition Zposition Xrotation Yrotation Zrotation
												End Site
												{
													OFFSET 264.434631 0.000000 0.012105
												}
											}
										}
									}
								}
								JOINT mixamorig:LeftHandPinky1
								{
									OFFSET 8.077789 -0.486847 -3.806259
									CHANNELS 6 Xposition Yposition Zposition Xrotation Yrotation Zrotation
									JOINT mixamorig:LeftHandPinky2
									{
										OFFSET 3.599953 0.000031 0.014727
										CHANNELS 6 Xposition Yposition Zposition Xrotation Yrotation Zrotation
										JOINT mixamorig:LeftHandPinky3
										{
											OFFSET 2.100021 0.000015 0.007705
											CHANNELS 6 Xposition Yposition Zposition Xrotation Yrotation Zrotation
											JOINT mixamorig:LeftHandPinky4
											{
												OFFSET 2.125504 0.000031 0.007517
												CHANNELS 6 Xposition Yposition Zposition Xrotation Yrotation Zrotation
												End Site
												{
													OFFSET 212.550781 0.000000 0.625752
												}
											}
										}
									}
								}
							}
						}
					}
				}
			}
		}
	}
	JOINT mixamorig:RightUpLeg
	{
		OFFSET -8.207787 -6.751648 -1.599560
		CHANNELS 6 Xposition Yposition Zposition Xrotation Yrotation Zrotation
		JOINT mixamorig:RightLeg
		{
			OFFSET -0.000002 -44.370117 0.345942
			CHANNELS 6 Xposition Yposition Zposition Xrotation Yrotation Zrotation
			JOINT mixamorig:RightFoot
			{
				OFFSET 0.000003 -44.423679 -3.043532
				CHANNELS 6 Xposition Yposition Zposition Xrotation Yrotation Zrotation
				JOINT mixamorig:RightToeBase
				{
					OFFSET -0.000002 -8.728671 10.710558
					CHANNELS 6 Xposition Yposition Zposition Xrotation Yrotation Zrotation
					JOINT mixamorig:RightToe_End
					{
						OFFSET -0.000001 -0.000679 9.278119
						CHANNELS 6 Xposition Yposition Zposition Xrotation Yrotation Zrotation
						End Site
						{
							OFFSET 0.000000 -0.067690 927.812134
						}
					}
				}
			}
		}
	}
	JOINT mixamorig:LeftUpLeg
	{
		OFFSET 8.207793 -6.751686 -1.599556
		CHANNELS 6 Xposition Yposition Zposition Xrotation Yrotation Zrotation
		JOINT mixamorig:LeftLeg
		{
			OFFSET -0.000004 -44.370014 0.346954
			CHANNELS 6 Xposition Yposition Zposition Xrotation Yrotation Zrotation
			JOINT mixamorig:LeftFoot
			{
				OFFSET -0.000001 -44.423672 -3.044401
				CHANNELS 6 Xposition Yposition Zposition Xrotation Yrotation Zrotation
				JOINT mixamorig:LeftToeBase
				{
					OFFSET -0.000002 -8.728669 10.710558
					CHANNELS 6 Xposition Yposition Zposition Xrotation Yrotation Zrotation
					JOINT mixamorig:LeftToe_End
					{
						OFFSET -0.000003 -0.000679 9.278133
						CHANNELS 6 Xposition Yposition Zposition Xrotation Yrotation Zrotation
						End Site
						{
							OFFSET 0.000000 -0.068021 927.813477
						}
					}
				}
			}
		}
	}
}
MOTION
Frames: 3
Frame Time: 0.033333
0.000006 104.270477 1.554256 0.000010 0.000003 -0.000113 -0.000005 10.181587 0.131522 0.000001 -0.000003 0.000084 -0.000000 9.893967 -1.470711 0.000001 0.000000 -0.000000 -0.000000 9.220802 -1.370642 0.000000 -0.000000 -0.000000 0.000001 16.740433 -2.049030 0.000000 -0.000000 -0.000000 0.000000 9.617859 1.685014 0.000000 0.000000 0.000000 0.000002 22.037384 7.501101 0.000000 -0.000000 0.000000 -4.569968 11.014880 -2.160881 0.000008 0.000001 -0.000038 -10.592875 -0.524684 -2.232000 72.971637 10.574237 -7.830545 -27.841536 0.000024 0.000526 -57.868102 121.193046 88.896961 -28.328827 0.000022 0.000023 -0.000322 -0.000044 0.000006 -2.464432 -1.573864 2.682368 -37.767473 -158.276752 13.111910 -3.215278 -1.872569 1.924644 155.988052 32.954023 10.542191 -2.654934 -1.527910 1.513091 150.041088 25.688369 -42.219360 -2.018837 -1.151999 1.108072 -0.000004 -0.000000 0.000000 -9.108372 -0.517564 2.260135 100.559960 16.510895 -19.868219 -3.700064 0.000318 0.001527 98.381806 13.651461 -15.757624 -2.850084 0.000365 -0.000256 96.718730 10.585887 -11.896170 -2.772166 -0.000017 -0.000024 -0.000002 -0.000002 -0.000002 -9.532575 0.000276 0.000235 93.278138 13.761394 -14.710810 -3.700056 0.000330 0.003950 93.445860 10.550241 -11.101922 -2.950053 0.000348 -0.001830 93.536169 10.264078 -10.906684 -2.946628 0.000013 -0.000161 0.000001 -0.000004 -0.000002 -9.103673 -0.042761 -1.864875 94.507005 14.480985 -15.606231 -3.379316 0.000316 -0.000814 94.834868 7.007170 -7.641374 -2.889756 0.000372 0.000649 97.485173 5.075507 -5.835429 -2.638808 -0.000020 0.000932 -0.000002 -0.000000 0.000003 -8.076737 -0.486380 -3.806005 92.621197 15.059804 -15.601984 -3.600022 0.000298 -0.003487 96.191296 5.092452 -5.296284 -2.099997 0.000329 -0.005477 97.179365 2.500218 -2.597546 -2.115765 -0.000054 -0.003677 -0.000003 0.000001 -0.000004 4.570446 11.014691 -2.160851 -0.000018 0.000010 -0.000021 10.592365 -0.524514 -2.232310 71.623624 3.450393 -2.489866 27.841829 0.000114 -0.000241 98.432035 -62.606122 70.357785 28.328829 -0.000027 0.000022 0.000022 -0.000089 0.000001 2.465917 -1.576109 2.681893 -48.094241 167.723655 10.892578 3.217827 -1.871782 1.916377 157.501444 -28.399522 15.404134 2.656101 -1.528647 1.514457 139.700892 -27.874487 46.557831 2.020903 -1.154057 1.115144 0.000001 0.000008 0.000004 9.109379 -0.517852 2.259731 84.736672 -15.230325 13.894250 3.700051 0.000158 -0.000445 84.413092 -15.270616 13.880014 2.850044 0.000185 0.000203 82.517776 -12.827661 11.262743 2.774889 -0.000013 -0.000033 0.000001 0.000001 -0.000001 9.533455 0.000221 -0.000108 86.150364 -14.403698 13.467782 3.700051 0.000185 -0.000379 87.373815 -14.109083 13.480101 2.950058 0.000154 -0.000182 87.724682 -16.668064 16.030504 2.952862 -0.000020 0.000065 0.000002 0.000002 0.000001 9.104591 -0.042820 -1.865211 85.929483 -13.428324 12.516033 3.150040 0.000199 -0.000092 89.788635 -13.195810 13.149482 2.950015 0.000183 -0.000071 92.420492 -14.146900 14.752826 2.644309 0.000049 0.000063 -0.000002 0.000003 0.000003 8.077839 -0.486723 -3.806412 75.338421 -15.974306 12.821610 3.600010 0.000180 0.014574 75.859100 -12.387150 10.064655 2.100034 0.000184 0.007554 80.574881 -10.848705 9.608766 2.125495 -0.000015 0.007514 -0.000003 0.000002 0.000000 -8.207786 -6.751667 -1.599560 -0.077001 -0.000003 0.000080 -0.000002 -44.370110 0.345938 0.153719 -0.000000 -0.000000 0.000000 -44.423679 -3.043532 -0.076700 0.000000 -0.000002 -0.000006 -8.728667 10.710559 -0.000009 -0.000000 -0.000000 -0.000001 -0.000679 9.278123 0.000000 -0.000000 -0.000000 8.207792 -6.751710 -1.599556 -0.074518 -0.000003 0.000081 -0.000002 -44.370014 0.346960 0.148822 0.000002 0.000000 -0.000001 -44.423664 -3.044403 -0.074314 0.000000 -0.000002 -0.000004 -8.728671 10.710558 0.000007 -0.000000 -0.000000 0.000000 -0.000680 9.278137 -0.000000 0.000000 -0.000001 
0.000006 104.270477 1.554256 0.000010 0.000003 -0.000113 -0.000005 10.181587 0.131522 0.000001 -0.000003 0.000084 -0.000000 9.893967 -1.470711 0.000001 0.000000 -0.000000 -0.000000 9.220802 -1.370642 0.000000 -0.000000 -0.000000 0.000001 16.740433 -2.049030 0.000000 -0.000000 -0.000000 0.000000 9.617859 1.685014 0.000000 0.000000 0.000000 0.000002 22.037384 7.501101 0.000000 -0.000000 0.000000 -4.569968 11.014880 -2.160881 0.000008 0.000001 -0.000038 -10.592878 -0.524700 -2.231984 72.681204 13.808594 -10.181094 -27.841520 0.000011 0.000498 -55.959036 118.086540 83.060291 -28.328827 0.000006 0.000022 -0.000320 -0.000044 0.000006 -2.464408 -1.573850 2.682364 -38.818680 -156.712707 10.098300 -3.215271 -1.872568 1.924658 157.160508 32.569798 7.298528 -2.654944 -1.527909 1.513092 148.824932 26.166274 -40.636074 -2.018834 -1.152001 1.108056 0.000001 -0.000001 0.000002 -9.108370 -0.517560 2.260134 100.442371 16.341386 -19.625744 -3.700067 0.000313 0.001547 99.072686 12.851670 -15.015807 -2.850088 0.000379 -0.000261 98.119499 9.614045 -11.073432 -2.772190 -0.000004 -0.000024 -0.000002 0.000003 -0.000002 -9.532588 0.000264 0.000240 93.400979 15.674997 -16.771415 -3.700052 0.000338 0.003956 93.084106 10.379714 -10.852779 -2.950062 0.000341 -0.001804 95.904496 9.412972 -10.423632 -2.946630 0.000001 -0.000153 -0.000002 0.000000 -0.000001 -9.103687 -0.042744 -1.864858 94.990603 15.951857 -17.336185 -3.379305 0.000320 -0.000809 94.034254 6.654951 -7.157520 -2.889758 0.000360 0.000650 101.049589 4.548454 -5.574677 -2.638804 -0.000028 0.000938 0.000000 -0.000000 0.000001 -8.076742 -0.486373 -3.805997 92.789383 16.876547 -17.548341 -3.600012 0.000299 -0.003500 95.552338 5.330954 -5.498760 -2.099980 0.000336 -0.005455 100.015334 2.132937 -2.294523 -2.115775 -0.000035 -0.003681 0.000002 -0.000002 -0.000000 4.570446 11.014691 -2.160851 -0.000018 0.000010 -0.000021 10.592358 -0.524538 -2.232264 71.348477 14.879313 -10.710812 27.841829 0.000102 -0.000218 99.095608 -65.124119 73.663788 28.328815 -0.000027 0.000020 0.000020 -0.000088 -0.000000 2.466104 -1.576149 2.681895 -24.122478 161.738265 -44.422942 3.217868 -1.871851 1.916411 164.114638 -22.719769 37.288540 2.656085 -1.528679 1.514487 136.807760 -28.453595 60.010001 2.020895 -1.154068 1.115152 0.000006 0.000003 0.000004 9.109367 -0.517862 2.259729 87.060132 -18.081432 17.178529 3.700030 0.000182 -0.000465 85.690700 -12.647718 11.752824 2.850050 0.000191 0.000197 84.301316 -9.141136 8.276382 2.774881 -0.000012 -0.000021 -0.000001 -0.000002 -0.000001 9.533454 0.000225 -0.000075 88.083533 -17.149026 16.584104 3.700052 0.000189 -0.000382 89.182579 -10.388818 10.239864 2.950046 0.000199 -0.000224 89.246749 -9.584782 9.462980 2.952860 -0.000031 0.000067 0.000001 0.000002 0.000002 9.104565 -0.042846 -1.865221 87.013735 -16.722012 15.885393 3.150056 0.000215 -0.000111 93.001235 -12.053694 12.698973 2.950041 0.000209 -0.000059 94.010744 -10.020871 10.745814 2.644327 0.000031 0.000057 -0.000000 0.000003 -0.000001 8.077833 -0.486728 -3.806417 79.389174 -19.067421 16.376190 3.600009 0.000164 0.014570 79.367925 -16.689571 14.319814 2.100045 0.000167 0.007558 79.867424 -11.553002 10.084563 2.125498 -0.000020 0.007515 0.000000 0.000000 0.000002 -8.207786 -6.751667 -1.599560 -0.077001 -0.000003 0.000080 -0.000002 -44.370110 0.345938 0.153719 -0.000000 -0.000000 0.000000 -44.423679 -3.043532 -0.076700 0.000000 -0.000002 -0.000006 -8.728667 10.710559 -0.000009 -0.000000 -0.000000 -0.000001 -0.000679 9.278123 0.000000 -0.000000 -0.000000 8.207792 -6.751710 -1.599556 -0.074518 -0.000003 0.000081 -0.000002 -44.370014 0.346960 0.148822 0.000002 0.000000 -0.000001 -44.423664 -3.044403 -0.074314 0.000000 -0.000002 -0.000004 -8.728671 10.710558 0.000007 -0.000000 -0.000000 0.000000 -0.000680 9.278137 -0.000000 0.000000 -0.000001 
0.000006 104.270477 1.554256 0.000010 0.000003 -0.000113 -0.000005 10.181587 0.131522 0.000001 -0.000003 0.000084 -0.000000 9.893967 -1.470711 0.000001 0.000000 -0.000000 -0.000000 9.220802 -1.370642 0.000000 -0.000000 -0.000000 0.000001 16.740433 -2.049030 0.000000 -0.000000 -0.000000 0.000000 9.617859 1.685014 0.000000 0.000000 0.000000 0.000002 22.037384 7.501101 0.000000 -0.000000 0.000000 -4.569968 11.014880 -2.160881 0.000008 0.000001 -0.000038 -10.592881 -0.524710 -2.231982 72.134871 15.910323 -11.623196 -27.841524 -0.000001 0.000544 -53.632141 116.035748 77.981137 -28.328844 0.000006 0.000023 -0.000322 -0.000047 0.000007 -2.464418 -1.573863 2.682363 -38.131413 -156.116623 11.362600 -3.215293 -1.872589 1.924646 157.385604 32.520959 6.844906 -2.654942 -1.527905 1.513085 148.776642 26.120826 -41.137919 -2.018819 -1.151996 1.108069 -0.000001 -0.000001 0.000002 -9.108374 -0.517556 2.260128 100.379670 16.308210 -19.564881 -3.700061 0.000331 0.001521 98.960528 12.742485 -14.859287 -2.850082 0.000374 -0.000262 98.123952 9.413957 -10.844147 -2.772163 -0.000017 -0.000020 0.000001 0.000000 -0.000003 -9.532594 0.000277 0.000238 93.170173 15.510526 -16.531127 -3.700069 0.000360 0.003958 93.104132 10.218845 -10.687066 -2.950060 0.000327 -0.001807 95.789175 9.276922 -10.252372 -2.946626 -0.000013 -0.000154 0.000003 -0.000000 0.000000 -9.103706 -0.042740 -1.864868 94.874777 15.787762 -17.123609 -3.379303 0.000330 -0.000813 93.781755 6.653420 -7.124426 -2.889746 0.000367 0.000668 100.672009 4.581599 -5.577415 -2.638827 -0.000016 0.000943 -0.000002 0.000002 -0.000002 -8.076759 -0.486386 -3.806005 92.783967 16.681065 -17.342211 -3.600034 0.000298 -0.003498 95.388837 5.407660 -5.566875 -2.099994 0.000335 -0.005462 100.204496 2.174593 -2.351873 -2.115777 -0.000043 -0.003679 0.000002 -0.000001 -0.000003 4.570446 11.014691 -2.160851 -0.000018 0.000010 -0.000021 10.592358 -0.524541 -2.232266 70.745426 13.022705 -9.265131 27.841841 0.000111 -0.000197 99.420404 -65.945026 74.848560 28.328817 -0.000029 0.000030 0.000021 -0.000088 -0.000000 2.466189 -1.576140 2.681880 -11.165094 161.969781 -68.151867 3.217863 -1.871856 1.916415 161.943976 -22.144836 41.472803 2.656104 -1.528684 1.514490 136.995208 -28.420141 57.783318 2.020892 -1.154068 1.115164 0.000001 0.000004 -0.000001 9.109384 -0.517863 2.259748 87.642009 -19.177433 18.405282 3.700055 0.000151 -0.000480 86.130099 -12.948054 12.124095 2.850051 0.000206 0.000194 84.574278 -9.691372 8.816982 2.774886 -0.000025 -0.000035 -0.000002 -0.000002 -0.000002 9.533477 0.000206 -0.000081 87.573059 -17.980415 17.237272 3.700045 0.000198 -0.000380 89.390955 -10.813824 10.697540 2.950064 0.000178 -0.000203 89.903089 -9.845098 9.831381 2.952867 -0.000013 0.000063 0.000001 -0.000000 -0.000000 9.104605 -0.042852 -1.865216 87.240702 -17.836805 17.012297 3.150058 0.000207 -0.000100 92.648675 -12.982413 13.593177 2.950020 0.000183 -0.000077 93.351877 -10.343565 10.965236 2.644326 0.000017 0.000059 -0.000001 0.000003 0.000003 8.077860 -0.486720 -3.806404 80.156887 -19.942996 17.344388 3.599992 0.000157 0.014578 78.347126 -17.533000 14.761205 2.100037 0.000177 0.007554 78.151858 -12.105715 10.236515 2.125515 0.000000 0.007510 0.000002 0.000000 -0.000005 -8.207786 -6.751667 -1.599560 -0.077001 -0.000003 0.000080 -0.000002 -44.370110 0.345938 0.153719 -0.000000 -0.000000 0.000000 -44.423679 -3.043532 -0.076700 0.000000 -0.000002 -0.000006 -8.728667 10.710559 -0.000009 -0.000000 -0.000000 -0.000001 -0.000679 9.278123 0.000000 -0.000000 -0.000000 8.207792 -6.751710 -1.599556 -0.074518 -0.000003 0.000081 -0.000002 -44.370014 0.346960 0.148822 0.000002 0.000000 -0.000001 -44.423664 -3.044403 -0.074314 0.000000 -0.000002 -0.000004 -8.728671 10.710558 0.000007 -0.000000 -0.000000 0.000000 -0.000680 9.278137 -0.000000 0.000000 -0.000001 
